<svg width="41" height="40" viewBox="0 0 41 40" fill="none" xmlns="http://www.w3.org/2000/svg">
<g filter="url(#filter0_d_126_2377)">
<rect x="4" width="33" height="32" rx="16" fill="#F1BF42" shape-rendering="crispEdges"/>
<path d="M19.648 15.328C19.8933 15.3493 20.1547 15.3493 20.432 15.328C20.7093 15.3067 20.9653 15.248 21.2 15.152C21.4453 15.0453 21.6427 14.896 21.792 14.704C21.952 14.512 22.032 14.256 22.032 13.936C22.032 13.456 21.872 13.088 21.552 12.832C21.232 12.576 20.864 12.448 20.448 12.448C19.872 12.448 19.4347 12.64 19.136 13.024C18.848 13.3973 18.7093 13.872 18.72 14.448H16.56C16.5813 13.872 16.6827 13.3493 16.864 12.88C17.056 12.4 17.3173 11.9893 17.648 11.648C17.9893 11.3067 18.3947 11.0453 18.864 10.864C19.3333 10.672 19.856 10.576 20.432 10.576C20.88 10.576 21.328 10.6453 21.776 10.784C22.224 10.912 22.624 11.1093 22.976 11.376C23.3387 11.6427 23.632 11.968 23.856 12.352C24.08 12.736 24.192 13.1787 24.192 13.68C24.192 14.224 24.0587 14.704 23.792 15.12C23.536 15.536 23.1467 15.8187 22.624 15.968V16C23.2427 16.1387 23.728 16.4373 24.08 16.896C24.432 17.3547 24.608 17.904 24.608 18.544C24.608 19.1307 24.4907 19.6533 24.256 20.112C24.032 20.5707 23.728 20.9547 23.344 21.264C22.96 21.5733 22.5173 21.808 22.016 21.968C21.5147 22.128 20.992 22.208 20.448 22.208C19.8187 22.208 19.2427 22.1173 18.72 21.936C18.208 21.7547 17.7707 21.4933 17.408 21.152C17.0453 20.8 16.7627 20.3733 16.56 19.872C16.368 19.3707 16.2773 18.7947 16.288 18.144H18.448C18.4587 18.4427 18.5067 18.7307 18.592 19.008C18.6773 19.2747 18.8 19.5093 18.96 19.712C19.12 19.904 19.3173 20.0587 19.552 20.176C19.7973 20.2933 20.0853 20.352 20.416 20.352C20.928 20.352 21.36 20.1973 21.712 19.888C22.064 19.568 22.24 19.136 22.24 18.592C22.24 18.1653 22.1547 17.84 21.984 17.616C21.824 17.392 21.616 17.232 21.36 17.136C21.104 17.0293 20.8213 16.9707 20.512 16.96C20.2133 16.9387 19.9253 16.928 19.648 16.928V15.328Z" fill="white"/>
</g>
<defs>
<filter id="filter0_d_126_2377" x="0" y="0" width="41" height="40" filterUnits="userSpaceOnUse" color-interpolation-filters="sRGB">
<feFlood flood-opacity="0" result="BackgroundImageFix"/>
<feColorMatrix in="SourceAlpha" type="matrix" values="0 0 0 0 0 0 0 0 0 0 0 0 0 0 0 0 0 0 127 0" result="hardAlpha"/>
<feOffset dy="4"/>
<feGaussianBlur stdDeviation="2"/>
<feComposite in2="hardAlpha" operator="out"/>
<feColorMatrix type="matrix" values="0 0 0 0 0 0 0 0 0 0 0 0 0 0 0 0 0 0 0.25 0"/>
<feBlend mode="normal" in2="BackgroundImageFix" result="effect1_dropShadow_126_2377"/>
<feBlend mode="normal" in="SourceGraphic" in2="effect1_dropShadow_126_2377" result="shape"/>
</filter>
</defs>
</svg>
