<svg width="25" height="24" viewBox="0 0 25 24" fill="none" xmlns="http://www.w3.org/2000/svg">
<path d="M14.5 11H13.5V9.99997C13.5 9.73475 13.3947 9.4804 13.2071 9.29286C13.0196 9.10533 12.7652 8.99997 12.5 8.99997C12.2348 8.99997 11.9805 9.10533 11.7929 9.29286C11.6054 9.4804 11.5 9.73475 11.5 9.99997V11H10.5C10.2348 11 9.98046 11.1053 9.79292 11.2929C9.60539 11.4804 9.50003 11.7348 9.50003 12C9.50003 12.2652 9.60539 12.5195 9.79292 12.7071C9.98046 12.8946 10.2348 13 10.5 13H11.5V14C11.5 14.2652 11.6054 14.5195 11.7929 14.7071C11.9805 14.8946 12.2348 15 12.5 15C12.7652 15 13.0196 14.8946 13.2071 14.7071C13.3947 14.5195 13.5 14.2652 13.5 14V13H14.5C14.7652 13 15.0196 12.8946 15.2071 12.7071C15.3947 12.5195 15.5 12.2652 15.5 12C15.5 11.7348 15.3947 11.4804 15.2071 11.2929C15.0196 11.1053 14.7652 11 14.5 11ZM20.66 4.99997C19.5937 3.94467 18.1854 3.30524 16.6891 3.19705C15.1928 3.08886 13.707 3.51904 12.5 4.40997C11.2277 3.46361 9.64402 3.03448 8.06795 3.20901C6.49188 3.38353 5.04047 4.14875 4.006 5.35055C2.97154 6.55236 2.43085 8.10149 2.49283 9.68598C2.55481 11.2705 3.21485 12.7726 4.34003 13.89L10.34 19.94C10.9025 20.5018 11.665 20.8173 12.46 20.8173C13.255 20.8173 14.0175 20.5018 14.58 19.94L20.58 13.89C21.171 13.3126 21.642 12.6242 21.966 11.8642C22.29 11.1042 22.4606 10.2877 22.468 9.4616C22.4755 8.63548 22.3196 7.81603 22.0093 7.05035C21.699 6.28467 21.2405 5.58786 20.66 4.99997ZM19.25 12.46L13.25 18.46C13.1571 18.5537 13.0465 18.6281 12.9246 18.6789C12.8027 18.7296 12.672 18.7558 12.54 18.7558C12.408 18.7558 12.2773 18.7296 12.1555 18.6789C12.0336 18.6281 11.923 18.5537 11.83 18.46L5.83003 12.46C5.04579 11.6583 4.60664 10.5814 4.60664 9.45997C4.60664 8.3385 5.04579 7.26162 5.83003 6.45997C6.62919 5.67096 7.707 5.22854 8.83003 5.22854C9.95306 5.22854 11.0309 5.67096 11.83 6.45997C11.923 6.5537 12.0336 6.62809 12.1555 6.67886C12.2773 6.72963 12.408 6.75577 12.54 6.75577C12.672 6.75577 12.8027 6.72963 12.9246 6.67886C13.0465 6.62809 13.1571 6.5537 13.25 6.45997C14.0492 5.67096 15.127 5.22854 16.25 5.22854C17.3731 5.22854 18.4509 5.67096 19.25 6.45997C20.0403 7.26252 20.4832 8.34365 20.4832 9.46997C20.4832 10.5963 20.0403 11.6774 19.25 12.48V12.46Z" fill="white"/>
</svg>
