<svg width="25" height="24" viewBox="0 0 25 24" fill="none" xmlns="http://www.w3.org/2000/svg">
<path d="M16.5 11H13.5V5.41002L14.29 6.21002C14.383 6.30375 14.4936 6.37814 14.6154 6.42891C14.7373 6.47968 14.868 6.50582 15 6.50582C15.132 6.50582 15.2627 6.47968 15.3846 6.42891C15.5064 6.37814 15.617 6.30375 15.71 6.21002C15.8037 6.11706 15.8781 6.00645 15.9289 5.8846C15.9797 5.76274 16.0058 5.63203 16.0058 5.50002C16.0058 5.36801 15.9797 5.2373 15.9289 5.11544C15.8781 4.99358 15.8037 4.88298 15.71 4.79002L13.21 2.29002C13.1149 2.19898 13.0028 2.12761 12.88 2.08002C12.6365 1.98 12.3635 1.98 12.12 2.08002C11.9972 2.12761 11.8851 2.19898 11.79 2.29002L9.29 4.79002C9.1017 4.97832 8.99591 5.23372 8.99591 5.50002C8.99591 5.76632 9.1017 6.02172 9.29 6.21002C9.4783 6.39832 9.7337 6.50411 10 6.50411C10.2663 6.50411 10.5217 6.39832 10.71 6.21002L11.5 5.41002V11H8.5C8.23478 11 7.98043 11.1054 7.79289 11.2929C7.60536 11.4804 7.5 11.7348 7.5 12C7.5 12.2652 7.60536 12.5196 7.79289 12.7071C7.98043 12.8947 8.23478 13 8.5 13H11.5V18.59L10.71 17.79C10.6168 17.6968 10.5061 17.6228 10.3842 17.5724C10.2624 17.5219 10.1319 17.4959 10 17.4959C9.86814 17.4959 9.73757 17.5219 9.61575 17.5724C9.49393 17.6228 9.38324 17.6968 9.29 17.79C9.19676 17.8833 9.1228 17.9939 9.07234 18.1158C9.02188 18.2376 8.99591 18.3682 8.99591 18.5C8.99591 18.6319 9.02188 18.7624 9.07234 18.8843C9.1228 19.0061 9.19676 19.1168 9.29 19.21L11.79 21.71C11.8851 21.8011 11.9972 21.8724 12.12 21.92C12.2397 21.9729 12.3691 22.0003 12.5 22.0003C12.6309 22.0003 12.7603 21.9729 12.88 21.92C13.0028 21.8724 13.1149 21.8011 13.21 21.71L15.71 19.21C15.8983 19.0217 16.0041 18.7663 16.0041 18.5C16.0041 18.2337 15.8983 17.9783 15.71 17.79C15.5217 17.6017 15.2663 17.4959 15 17.4959C14.7337 17.4959 14.4783 17.6017 14.29 17.79L13.5 18.59V13H16.5C16.7652 13 17.0196 12.8947 17.2071 12.7071C17.3946 12.5196 17.5 12.2652 17.5 12C17.5 11.7348 17.3946 11.4804 17.2071 11.2929C17.0196 11.1054 16.7652 11 16.5 11Z" fill="white"/>
</svg>
