<svg width="25" height="24" viewBox="0 0 25 24" fill="none" xmlns="http://www.w3.org/2000/svg">
<path d="M21.9101 8.65C21.9101 8.65 21.9101 8.65 21.9101 8.59C21.2116 6.66395 19.9385 4.9989 18.2628 3.8201C16.5871 2.64129 14.5898 2.00562 12.541 1.99907C10.4923 1.99253 8.49092 2.61542 6.80774 3.7835C5.12457 4.95157 3.84078 6.60845 3.13006 8.53C3.09157 8.60556 3.0646 8.68646 3.05006 8.77C2.68805 9.80851 2.50215 10.9002 2.50006 12C2.49511 13.46 2.80993 14.9034 3.4224 16.2288C4.03487 17.5542 4.93014 18.7293 6.04529 19.6718C7.16045 20.6142 8.46844 21.301 9.87738 21.6839C11.2863 22.0668 12.762 22.1365 14.2008 21.8882C15.6395 21.6399 17.0065 21.0795 18.2055 20.2465C19.4046 19.4135 20.4067 18.328 21.1415 17.0663C21.8762 15.8046 22.3258 14.3973 22.4586 12.9433C22.5913 11.4893 22.4041 10.0239 21.9101 8.65ZM12.5001 4C13.903 4.00144 15.2808 4.37177 16.4954 5.07385C17.71 5.77592 18.7186 6.78505 19.4201 8H18.2201C17.9227 7.67313 17.5568 7.416 17.1485 7.24696C16.7402 7.07793 16.2996 7.00118 15.8583 7.0222C15.4169 7.04322 14.9856 7.16149 14.5952 7.36855C14.2048 7.57561 13.865 7.86636 13.6001 8.22C13.2494 8.08186 12.8769 8.00736 12.5001 8C12.1232 8.00736 11.7507 8.08186 11.4001 8.22C11.1351 7.86636 10.7953 7.57561 10.4049 7.36855C10.0145 7.16149 9.58325 7.04322 9.14186 7.0222C8.70047 7.00118 8.25989 7.07793 7.8516 7.24696C7.44332 7.416 7.07742 7.67313 6.78006 8H5.58006C6.28151 6.78505 7.29012 5.77592 8.50471 5.07385C9.7193 4.37177 11.0972 4.00144 12.5001 4ZM17.0001 10C17.0001 10.1978 16.9414 10.3911 16.8315 10.5556C16.7216 10.72 16.5655 10.8482 16.3827 10.9239C16.2 10.9996 15.9989 11.0194 15.805 10.9808C15.611 10.9422 15.4328 10.847 15.293 10.7071C15.1531 10.5673 15.0579 10.3891 15.0193 10.1951C14.9807 10.0011 15.0005 9.80004 15.0762 9.61732C15.1519 9.43459 15.28 9.27841 15.4445 9.16853C15.6089 9.05865 15.8023 9 16.0001 9C16.2653 9 16.5196 9.10536 16.7072 9.29289C16.8947 9.48043 17.0001 9.73478 17.0001 10ZM10.0001 10C10.0001 10.1978 9.94141 10.3911 9.83153 10.5556C9.72165 10.72 9.56547 10.8482 9.38274 10.9239C9.20002 10.9996 8.99895 11.0194 8.80497 10.9808C8.61099 10.9422 8.4328 10.847 8.29295 10.7071C8.1531 10.5673 8.05786 10.3891 8.01927 10.1951C7.98069 10.0011 8.00049 9.80004 8.07618 9.61732C8.15187 9.43459 8.28004 9.27841 8.44449 9.16853C8.60894 9.05865 8.80228 9 9.00006 9C9.26527 9 9.51963 9.10536 9.70716 9.29289C9.8947 9.48043 10.0001 9.73478 10.0001 10ZM12.5001 20C10.3783 20 8.34349 19.1571 6.8432 17.6569C5.34291 16.1566 4.50006 14.1217 4.50006 12C4.5045 11.3252 4.59182 10.6535 4.76006 10H6.00006C5.97619 10.7956 6.26937 11.5682 6.8151 12.1477C7.36083 12.7272 8.11441 13.0661 8.91006 13.09C9.70571 13.1139 10.4783 12.8207 11.0577 12.275C11.6372 11.7292 11.9762 10.9756 12.0001 10.18C12.1521 10.0922 12.3245 10.046 12.5001 10.046C12.6756 10.046 12.848 10.0922 13.0001 10.18C13.0239 10.9756 13.3629 11.7292 13.9424 12.275C14.5219 12.8207 15.2944 13.1139 16.0901 13.09C16.8857 13.0661 17.6393 12.7272 18.185 12.1477C18.7307 11.5682 19.0239 10.7956 19.0001 10H20.2401C20.4083 10.6535 20.4956 11.3252 20.5001 12C20.5001 14.1217 19.6572 16.1566 18.1569 17.6569C16.6566 19.1571 14.6218 20 12.5001 20ZM14.8601 14.23C14.1916 14.769 13.3588 15.0629 12.5001 15.0629C11.6414 15.0629 10.8085 14.769 10.1401 14.23C9.93584 14.0603 9.67256 13.9786 9.40813 14.003C9.14371 14.0274 8.8998 14.1558 8.73006 14.36C8.56032 14.5642 8.47866 14.8275 8.50304 15.0919C8.52742 15.3563 8.65584 15.6003 8.86006 15.77C9.8814 16.6226 11.1696 17.0896 12.5001 17.0896C13.8305 17.0896 15.1187 16.6226 16.1401 15.77C16.3443 15.6003 16.4727 15.3563 16.4971 15.0919C16.5215 14.8275 16.4398 14.5642 16.2701 14.36C16.186 14.2589 16.0829 14.1753 15.9665 14.1141C15.8502 14.0528 15.7229 14.0151 15.592 14.003C15.3276 13.9786 15.0643 14.0603 14.8601 14.23Z" fill="white"/>
</svg>
