<svg width="25" height="24" viewBox="0 0 25 24" fill="none" xmlns="http://www.w3.org/2000/svg">
<path d="M20.3701 8.59998C20.2956 8.42869 20.1746 8.2817 20.0209 8.17566C19.8671 8.06961 19.6867 8.00875 19.5001 7.99998H14.9201L16.1901 3.25998C16.2306 3.11165 16.2363 2.956 16.2068 2.80511C16.1773 2.65422 16.1134 2.51217 16.0201 2.38998C15.927 2.26896 15.8073 2.17089 15.6704 2.10329C15.5334 2.03568 15.3828 2.00034 15.2301 1.99998H8.23012C8.00436 1.99224 7.78263 2.06118 7.60104 2.19555C7.41946 2.32992 7.28872 2.52181 7.23012 2.73998L4.55012 12.74C4.50967 12.8883 4.50397 13.044 4.53345 13.1948C4.56294 13.3457 4.62681 13.4878 4.72012 13.61C4.81431 13.7323 4.93555 13.8312 5.07434 13.8989C5.21314 13.9665 5.36572 14.0011 5.52012 14H9.39012L7.58012 20.74C7.52082 20.9573 7.53664 21.1883 7.62502 21.3955C7.71341 21.6028 7.86917 21.7741 8.06708 21.8817C8.26499 21.9893 8.49344 22.027 8.71543 21.9886C8.93741 21.9501 9.13991 21.8379 9.29012 21.67L20.1901 9.66998C20.3199 9.52786 20.4059 9.35131 20.4379 9.16151C20.4698 8.97171 20.4463 8.77674 20.3701 8.59998ZM10.5801 17.28L11.6501 13.28C11.6906 13.1317 11.6963 12.976 11.6668 12.8251C11.6373 12.6742 11.5734 12.5322 11.4801 12.41C11.387 12.289 11.2673 12.1909 11.1304 12.1233C10.9934 12.0557 10.8428 12.0203 10.6901 12.02H6.85012L8.99012 3.99998H13.9201L12.6501 8.73998C12.6093 8.89103 12.6046 9.04955 12.6362 9.20278C12.6679 9.35601 12.735 9.49968 12.8323 9.62223C12.9295 9.74479 13.0542 9.84281 13.1963 9.90841C13.3383 9.97402 13.4938 10.0054 13.6501 9.99998H17.2201L10.5801 17.28Z" fill="white"/>
</svg>
