<svg width="24" height="24" viewBox="0 0 24 24" fill="none" xmlns="http://www.w3.org/2000/svg">
<g id="arrow-up 2">
<path id="Vector" d="M11.2899 6.28982L6.2899 11.2898C6.19886 11.3849 6.12749 11.4971 6.0799 11.6198C5.97988 11.8633 5.97988 12.1364 6.0799 12.3798C6.12749 12.5026 6.19886 12.6147 6.2899 12.7098L11.2899 17.7098C11.3831 17.8031 11.4938 17.877 11.6156 17.9275C11.7375 17.9779 11.868 18.0039 11.9999 18.0039C12.2662 18.0039 12.5216 17.8981 12.7099 17.7098C12.8982 17.5215 13.004 17.2661 13.004 16.9998C13.004 16.7335 12.8982 16.4781 12.7099 16.2898L9.4099 12.9998H16.9999C17.2651 12.9998 17.5195 12.8945 17.707 12.7069C17.8945 12.5194 17.9999 12.265 17.9999 11.9998C17.9999 11.7346 17.8945 11.4802 17.707 11.2927C17.5195 11.1052 17.2651 10.9998 16.9999 10.9998H9.4099L12.7099 7.70981C12.8036 7.61685 12.878 7.50625 12.9288 7.38439C12.9796 7.26253 13.0057 7.13183 13.0057 6.99981C13.0057 6.8678 12.9796 6.7371 12.9288 6.61524C12.878 6.49338 12.8036 6.38278 12.7099 6.28982C12.6169 6.19609 12.5063 6.12169 12.3845 6.07092C12.2626 6.02015 12.1319 5.99402 11.9999 5.99402C11.8679 5.99402 11.7372 6.02015 11.6153 6.07092C11.4935 6.12169 11.3829 6.19609 11.2899 6.28982Z" fill="#D2D2D3"/>
</g>
</svg>
