<svg width="24" height="24" viewBox="0 0 24 24" fill="none" xmlns="http://www.w3.org/2000/svg">
<g id="arrow-up 1">
<path id="Vector" d="M12.7101 6.28982L17.7101 11.2898C17.8011 11.3849 17.8725 11.4971 17.9201 11.6198C18.0201 11.8633 18.0201 12.1364 17.9201 12.3798C17.8725 12.5026 17.8011 12.6147 17.7101 12.7098L12.7101 17.7098C12.6169 17.8031 12.5062 17.877 12.3844 17.9275C12.2625 17.9779 12.132 18.0039 12.0001 18.0039C11.7338 18.0039 11.4784 17.8981 11.2901 17.7098C11.1018 17.5215 10.996 17.2661 10.996 16.9998C10.996 16.7335 11.1018 16.4781 11.2901 16.2898L14.5901 12.9998H7.0001C6.73489 12.9998 6.48053 12.8945 6.293 12.7069C6.10546 12.5194 6.0001 12.265 6.0001 11.9998C6.0001 11.7346 6.10546 11.4802 6.293 11.2927C6.48053 11.1052 6.73489 10.9998 7.0001 10.9998H14.5901L11.2901 7.70981C11.1964 7.61685 11.122 7.50625 11.0712 7.38439C11.0204 7.26253 10.9943 7.13183 10.9943 6.99981C10.9943 6.8678 11.0204 6.7371 11.0712 6.61524C11.122 6.49338 11.1964 6.38278 11.2901 6.28982C11.3831 6.19609 11.4937 6.12169 11.6155 6.07092C11.7374 6.02015 11.8681 5.99402 12.0001 5.99402C12.1321 5.99402 12.2628 6.02015 12.3847 6.07092C12.5065 6.12169 12.6171 6.19609 12.7101 6.28982Z" fill="#F1BF42"/>
</g>
</svg>
