<svg width="24" height="24" viewBox="0 0 24 24" fill="none" xmlns="http://www.w3.org/2000/svg">
<path d="M11.29 6.29006L6.29002 11.2901C6.19898 11.3852 6.12761 11.4973 6.08002 11.6201C5.98 11.8635 5.98 12.1366 6.08002 12.3801C6.12761 12.5028 6.19898 12.615 6.29002 12.7101L11.29 17.7101C11.3833 17.8033 11.4939 17.8773 11.6158 17.9277C11.7376 17.9782 11.8682 18.0042 12 18.0042C12.2663 18.0042 12.5217 17.8984 12.71 17.7101C12.8983 17.5218 13.0041 17.2664 13.0041 17.0001C13.0041 16.7338 12.8983 16.4784 12.71 16.2901L9.41002 13.0001H17C17.2652 13.0001 17.5196 12.8947 17.7071 12.7072C17.8947 12.5196 18 12.2653 18 12.0001C18 11.7348 17.8947 11.4805 17.7071 11.293C17.5196 11.1054 17.2652 11.0001 17 11.0001H9.41002L12.71 7.71006C12.8037 7.61709 12.8781 7.5065 12.9289 7.38464C12.9797 7.26278 13.0058 7.13207 13.0058 7.00006C13.0058 6.86805 12.9797 6.73734 12.9289 6.61548C12.8781 6.49362 12.8037 6.38302 12.71 6.29006C12.6171 6.19633 12.5065 6.12194 12.3846 6.07117C12.2627 6.0204 12.132 5.99426 12 5.99426C11.868 5.99426 11.7373 6.0204 11.6154 6.07117C11.4936 6.12194 11.383 6.19633 11.29 6.29006Z" fill="#474747"/>
</svg>
