<svg width="24" height="24" viewBox="0 0 24 24" fill="none" xmlns="http://www.w3.org/2000/svg">
<path d="M17.7099 12.7101L12.7099 17.7101C12.6148 17.8011 12.5027 17.8725 12.3799 17.9201C12.1365 18.0201 11.8634 18.0201 11.6199 17.9201C11.4972 17.8725 11.385 17.8011 11.2899 17.7101L6.28994 12.7101C6.1967 12.6169 6.12274 12.5062 6.07228 12.3844C6.02182 12.2625 5.99585 12.132 5.99585 12.0001C5.99585 11.7338 6.10164 11.4784 6.28994 11.2901C6.47825 11.1018 6.73364 10.996 6.99994 10.996C7.26624 10.996 7.52164 11.1018 7.70994 11.2901L10.9999 14.5901V7.0001C10.9999 6.73489 11.1053 6.48053 11.2928 6.293C11.4804 6.10546 11.7347 6.0001 11.9999 6.0001C12.2652 6.0001 12.5195 6.10546 12.707 6.293C12.8946 6.48053 12.9999 6.73489 12.9999 7.0001V14.5901L16.2899 11.2901C16.3829 11.1964 16.4935 11.122 16.6154 11.0712C16.7372 11.0204 16.8679 10.9943 16.9999 10.9943C17.132 10.9943 17.2627 11.0204 17.3845 11.0712C17.5064 11.122 17.617 11.1964 17.7099 11.2901C17.8037 11.3831 17.8781 11.4937 17.9288 11.6155C17.9796 11.7374 18.0057 11.8681 18.0057 12.0001C18.0057 12.1321 17.9796 12.2628 17.9288 12.3847C17.8781 12.5065 17.8037 12.6171 17.7099 12.7101Z" fill="#F1BF42"/>
</svg>
