<svg width="212" height="12" viewBox="0 0 212 12" fill="none" xmlns="http://www.w3.org/2000/svg">
<path fill-rule="evenodd" clip-rule="evenodd" d="M10.7019 0L21.4038 10.1395L19.4401 12L10.7019 3.72108L1.96375 12L0 10.1395L10.7019 0Z" fill="#F1BF42"/>
<path fill-rule="evenodd" clip-rule="evenodd" d="M28.0288 0L38.7308 10.1395L36.767 12L28.0288 3.72108L19.2907 12L17.3269 10.1395L28.0288 0Z" fill="#F1BF42"/>
<path fill-rule="evenodd" clip-rule="evenodd" d="M45.3557 0L56.0577 10.1395L54.0939 12L45.3557 3.72108L36.6176 12L34.6538 10.1395L45.3557 0Z" fill="#F1BF42"/>
<path fill-rule="evenodd" clip-rule="evenodd" d="M62.6826 0L73.3846 10.1395L71.4208 12L62.6826 3.72108L53.9445 12L51.9807 10.1395L62.6826 0Z" fill="#F1BF42"/>
<path fill-rule="evenodd" clip-rule="evenodd" d="M80.0097 0L90.7116 10.1395L88.7478 12L80.0097 3.72108L71.2715 12L69.3077 10.1395L80.0097 0Z" fill="#F1BF42"/>
<path fill-rule="evenodd" clip-rule="evenodd" d="M97.3366 0L108.038 10.1395L106.075 12L97.3366 3.72108L88.5984 12L86.6346 10.1395L97.3366 0Z" fill="#F1BF42"/>
<path fill-rule="evenodd" clip-rule="evenodd" d="M114.663 0L125.365 10.1395L123.402 12L114.663 3.72108L105.925 12L103.962 10.1395L114.663 0Z" fill="#F1BF42"/>
<path fill-rule="evenodd" clip-rule="evenodd" d="M131.99 0L142.692 10.1395L140.729 12L131.99 3.72108L123.252 12L121.288 10.1395L131.99 0Z" fill="#F1BF42"/>
<path fill-rule="evenodd" clip-rule="evenodd" d="M149.317 0L160.019 10.1395L158.055 12L149.317 3.72108L140.579 12L138.615 10.1395L149.317 0Z" fill="#F1BF42"/>
<path fill-rule="evenodd" clip-rule="evenodd" d="M166.644 0L177.346 10.1395L175.382 12L166.644 3.72108L157.906 12L155.942 10.1395L166.644 0Z" fill="#F1BF42"/>
<path fill-rule="evenodd" clip-rule="evenodd" d="M183.971 0L194.673 10.1395L192.709 12L183.971 3.72108L175.233 12L173.269 10.1395L183.971 0Z" fill="#F1BF42"/>
<path fill-rule="evenodd" clip-rule="evenodd" d="M201.298 0L212 10.1395L210.036 12L201.298 3.72108L192.56 12L190.596 10.1395L201.298 0Z" fill="#F1BF42"/>
</svg>
