<svg width="406" height="12" viewBox="0 0 406 12" fill="none" xmlns="http://www.w3.org/2000/svg">
<path fill-rule="evenodd" clip-rule="evenodd" d="M10.5664 0L21.1327 10.1395L19.1939 12L10.5664 3.72108L1.93887 12L0 10.1395L10.5664 0Z" fill="#F1BF42"/>
<path fill-rule="evenodd" clip-rule="evenodd" d="M27.6738 0L38.2401 10.1395L36.3013 12L27.6738 3.72108L19.0463 12L17.1074 10.1395L27.6738 0Z" fill="#F1BF42"/>
<path fill-rule="evenodd" clip-rule="evenodd" d="M44.7812 0L55.3476 10.1395L53.4087 12L44.7812 3.72108L36.1537 12L34.2148 10.1395L44.7812 0Z" fill="#F1BF42"/>
<path fill-rule="evenodd" clip-rule="evenodd" d="M61.8886 0L72.455 10.1395L70.5161 12L61.8886 3.72108L53.2611 12L51.3223 10.1395L61.8886 0Z" fill="#F1BF42"/>
<path fill-rule="evenodd" clip-rule="evenodd" d="M78.9962 0L89.5625 10.1395L87.6237 12L78.9962 3.72108L70.3687 12L68.4298 10.1395L78.9962 0Z" fill="#F1BF42"/>
<path fill-rule="evenodd" clip-rule="evenodd" d="M96.1036 0L106.67 10.1395L104.731 12L96.1036 3.72108L87.4761 12L85.5372 10.1395L96.1036 0Z" fill="#F1BF42"/>
<path fill-rule="evenodd" clip-rule="evenodd" d="M113.211 0L123.777 10.1395L121.839 12L113.211 3.72108L104.584 12L102.645 10.1395L113.211 0Z" fill="#F1BF42"/>
<path fill-rule="evenodd" clip-rule="evenodd" d="M130.318 0L140.885 10.1395L138.946 12L130.318 3.72108L121.691 12L119.752 10.1395L130.318 0Z" fill="#F1BF42"/>
<path fill-rule="evenodd" clip-rule="evenodd" d="M147.426 0L157.992 10.1395L156.053 12L147.426 3.72108L138.798 12L136.859 10.1395L147.426 0Z" fill="#F1BF42"/>
<path fill-rule="evenodd" clip-rule="evenodd" d="M164.533 0L175.1 10.1395L173.161 12L164.533 3.72108L155.906 12L153.967 10.1395L164.533 0Z" fill="#F1BF42"/>
<path fill-rule="evenodd" clip-rule="evenodd" d="M181.641 0L192.207 10.1395L190.268 12L181.641 3.72108L173.013 12L171.074 10.1395L181.641 0Z" fill="#F1BF42"/>
<path fill-rule="evenodd" clip-rule="evenodd" d="M198.748 0L209.315 10.1395L207.376 12L198.748 3.72108L190.121 12L188.182 10.1395L198.748 0Z" fill="#F1BF42"/>
<path fill-rule="evenodd" clip-rule="evenodd" d="M215.932 0L226.498 10.1395L224.559 12L215.932 3.72108L207.304 12L205.365 10.1395L215.932 0Z" fill="#F1BF42"/>
<path fill-rule="evenodd" clip-rule="evenodd" d="M233.039 0L243.605 10.1395L241.667 12L233.039 3.72108L224.412 12L222.473 10.1395L233.039 0Z" fill="#F1BF42"/>
<path fill-rule="evenodd" clip-rule="evenodd" d="M250.146 0L260.713 10.1395L258.774 12L250.146 3.72108L241.519 12L239.58 10.1395L250.146 0Z" fill="#F1BF42"/>
<path fill-rule="evenodd" clip-rule="evenodd" d="M267.254 0L277.82 10.1395L275.881 12L267.254 3.72108L258.626 12L256.688 10.1395L267.254 0Z" fill="#F1BF42"/>
<path fill-rule="evenodd" clip-rule="evenodd" d="M284.361 0L294.928 10.1395L292.989 12L284.361 3.72108L275.734 12L273.795 10.1395L284.361 0Z" fill="#F1BF42"/>
<path fill-rule="evenodd" clip-rule="evenodd" d="M301.469 0L312.035 10.1395L310.096 12L301.469 3.72108L292.841 12L290.902 10.1395L301.469 0Z" fill="#F1BF42"/>
<path fill-rule="evenodd" clip-rule="evenodd" d="M318.576 0L329.143 10.1395L327.204 12L318.576 3.72108L309.949 12L308.01 10.1395L318.576 0Z" fill="#F1BF42"/>
<path fill-rule="evenodd" clip-rule="evenodd" d="M335.684 0L346.25 10.1395L344.311 12L335.684 3.72108L327.056 12L325.117 10.1395L335.684 0Z" fill="#F1BF42"/>
<path fill-rule="evenodd" clip-rule="evenodd" d="M352.791 0L363.357 10.1395L361.419 12L352.791 3.72108L344.164 12L342.225 10.1395L352.791 0Z" fill="#F1BF42"/>
<path fill-rule="evenodd" clip-rule="evenodd" d="M369.899 0L380.465 10.1395L378.526 12L369.899 3.72108L361.271 12L359.332 10.1395L369.899 0Z" fill="#F1BF42"/>
<path fill-rule="evenodd" clip-rule="evenodd" d="M387.006 0L397.572 10.1395L395.634 12L387.006 3.72108L378.379 12L376.44 10.1395L387.006 0Z" fill="#F1BF42"/>
<path d="M404.113 3.72108L395.486 12L393.547 10.1395L404.113 0L406 1.81033L404.113 3.72108Z" fill="#F1BF42"/>
</svg>
