<svg width="133" height="9" viewBox="0 0 133 9" fill="none" xmlns="http://www.w3.org/2000/svg">
<path fill-rule="evenodd" clip-rule="evenodd" d="M8 0L16 7.6046L14.532 9L8 2.79081L1.46796 9L0 7.6046L8 0Z" fill="#F1BF42"/>
<path fill-rule="evenodd" clip-rule="evenodd" d="M21 0L29 7.6046L27.532 9L21 2.79081L14.468 9L13 7.6046L21 0Z" fill="#F1BF42"/>
<path fill-rule="evenodd" clip-rule="evenodd" d="M34 0L42 7.6046L40.532 9L34 2.79081L27.468 9L26 7.6046L34 0Z" fill="#F1BF42"/>
<path fill-rule="evenodd" clip-rule="evenodd" d="M47 0L55 7.6046L53.532 9L47 2.79081L40.468 9L39 7.6046L47 0Z" fill="#F1BF42"/>
<path fill-rule="evenodd" clip-rule="evenodd" d="M60 0L68 7.6046L66.532 9L60 2.79081L53.468 9L52 7.6046L60 0Z" fill="#F1BF42"/>
<path fill-rule="evenodd" clip-rule="evenodd" d="M73 0L81 7.6046L79.532 9L73 2.79081L66.468 9L65 7.6046L73 0Z" fill="#F1BF42"/>
<path fill-rule="evenodd" clip-rule="evenodd" d="M86 0L94 7.6046L92.532 9L86 2.79081L79.468 9L78 7.6046L86 0Z" fill="#F1BF42"/>
<path fill-rule="evenodd" clip-rule="evenodd" d="M99 0L107 7.6046L105.532 9L99 2.79081L92.468 9L91 7.6046L99 0Z" fill="#F1BF42"/>
<path fill-rule="evenodd" clip-rule="evenodd" d="M112 0L120 7.6046L118.532 9L112 2.79081L105.468 9L104 7.6046L112 0Z" fill="#F1BF42"/>
<path fill-rule="evenodd" clip-rule="evenodd" d="M125 0L133 7.6046L131.532 9L125 2.79081L118.468 9L117 7.6046L125 0Z" fill="#F1BF42"/>
</svg>
