<svg width="117" height="12" viewBox="0 0 117 12" fill="none" xmlns="http://www.w3.org/2000/svg">
<path fill-rule="evenodd" clip-rule="evenodd" d="M9.9878 0L19.9756 10.1395L18.1429 12L9.9878 3.72108L1.83271 12L0 10.1395L9.9878 0Z" fill="#F1BF42"/>
<path fill-rule="evenodd" clip-rule="evenodd" d="M26.1586 0L36.1464 10.1395L34.3137 12L26.1586 3.72108L18.0035 12L16.1708 10.1395L26.1586 0Z" fill="#F1BF42"/>
<path fill-rule="evenodd" clip-rule="evenodd" d="M42.3292 0L52.317 10.1395L50.4843 12L42.3292 3.72108L34.1741 12L32.3414 10.1395L42.3292 0Z" fill="#F1BF42"/>
<path fill-rule="evenodd" clip-rule="evenodd" d="M58.4999 0L68.4877 10.1395L66.655 12L58.4999 3.72108L50.3448 12L48.5121 10.1395L58.4999 0Z" fill="#F1BF42"/>
<path fill-rule="evenodd" clip-rule="evenodd" d="M74.6708 0L84.6586 10.1395L82.8259 12L74.6708 3.72108L66.5157 12L64.683 10.1395L74.6708 0Z" fill="#F1BF42"/>
<path fill-rule="evenodd" clip-rule="evenodd" d="M90.8414 0L100.829 10.1395L98.9965 12L90.8414 3.72108L82.6863 12L80.8536 10.1395L90.8414 0Z" fill="#F1BF42"/>
<path fill-rule="evenodd" clip-rule="evenodd" d="M107.012 0L117 10.1395L115.167 12L107.012 3.72108L98.8571 12L97.0244 10.1395L107.012 0Z" fill="#F1BF42"/>
</svg>
