<svg width="204" height="14" viewBox="0 0 204 14" fill="none" xmlns="http://www.w3.org/2000/svg">
<path fill-rule="evenodd" clip-rule="evenodd" d="M12.5 0L25 11.8294L22.7063 14L12.5 4.34126L2.29368 14L0 11.8294L12.5 0Z" fill="#F1BF42"/>
<path fill-rule="evenodd" clip-rule="evenodd" d="M33.5 0L46 11.8294L43.7063 14L33.5 4.34126L23.2937 14L21 11.8294L33.5 0Z" fill="#F1BF42"/>
<path fill-rule="evenodd" clip-rule="evenodd" d="M54.5 0L67 11.8294L64.7063 14L54.5 4.34126L44.2937 14L42 11.8294L54.5 0Z" fill="#F1BF42"/>
<path fill-rule="evenodd" clip-rule="evenodd" d="M75.5 0L88 11.8294L85.7063 14L75.5 4.34126L65.2937 14L63 11.8294L75.5 0Z" fill="#F1BF42"/>
<path fill-rule="evenodd" clip-rule="evenodd" d="M96.5 0L109 11.8294L106.706 14L96.5 4.34126L86.2937 14L84 11.8294L96.5 0Z" fill="#F1BF42"/>
<path fill-rule="evenodd" clip-rule="evenodd" d="M117.5 0L130 11.8294L127.706 14L117.5 4.34126L107.294 14L105 11.8294L117.5 0Z" fill="#F1BF42"/>
<path fill-rule="evenodd" clip-rule="evenodd" d="M138.5 0L151 11.8294L148.706 14L138.5 4.34126L128.294 14L126 11.8294L138.5 0Z" fill="#F1BF42"/>
<path fill-rule="evenodd" clip-rule="evenodd" d="M159.5 0L172 11.8294L169.706 14L159.5 4.34126L149.294 14L147 11.8294L159.5 0Z" fill="#F1BF42"/>
<path fill-rule="evenodd" clip-rule="evenodd" d="M180.5 0L193 11.8294L190.706 14L180.5 4.34126L170.294 14L168 11.8294L180.5 0Z" fill="#F1BF42"/>
<path d="M201.5 4.34126L191.294 14L189 11.8294L201.5 0L203.73 2.1108L201.5 4.34126Z" fill="#F1BF42"/>
</svg>
