<svg width="24" height="24" viewBox="0 0 24 24" fill="none" xmlns="http://www.w3.org/2000/svg">
<path d="M11.9913 1.00068C10.5581 0.948525 9.1291 1.18737 7.79071 1.7028C6.45232 2.21823 5.23227 2.99955 4.20422 3.99958C3.17616 4.99961 2.36144 6.19762 1.80923 7.52125C1.25702 8.84489 0.978788 10.2667 0.991324 11.7009C0.972533 13.1786 1.26707 14.6436 1.85553 15.9993C2.444 17.355 3.31303 18.5706 4.40538 19.5661L4.45711 21.2565C4.47177 21.7238 4.66772 22.1671 5.00347 22.4924C5.33922 22.8178 5.78841 22.9997 6.25594 22.9997C6.50603 22.9994 6.75336 22.9475 6.9825 22.8474L8.9034 22.0007C9.91071 22.2689 10.9489 22.4035 11.9913 22.4011C13.4246 22.4532 14.8536 22.2144 16.1921 21.699C17.5305 21.1836 18.7507 20.4023 19.7788 19.4023C20.8069 18.4022 21.6218 17.2042 22.1741 15.8806C22.7264 14.5569 23.0047 13.1351 22.9923 11.7009C23.0047 10.2667 22.7264 8.84481 22.1741 7.52116C21.6218 6.19751 20.8069 4.99951 19.7788 3.99948C18.7507 2.99946 17.5306 2.21816 16.1921 1.70275C14.8537 1.18734 13.4246 0.948508 11.9913 1.00068ZM11.9913 20.4011C11.1013 20.4036 10.215 20.2857 9.35656 20.0505C8.95905 19.9432 8.53678 19.9757 8.16027 20.1423L6.4464 20.8981L6.40148 19.405C6.39154 19.1631 6.33318 18.9257 6.22985 18.7068C6.12652 18.4879 5.98032 18.292 5.79991 18.1306C4.90047 17.321 4.18453 16.3285 3.70013 15.2195C3.21573 14.1106 2.97406 12.9109 2.99132 11.7009C2.98492 10.531 3.21561 9.37204 3.66948 8.29382C4.12335 7.21561 4.79098 6.24054 5.63208 5.42746C6.47318 4.61438 7.4703 3.98015 8.56327 3.56306C9.65624 3.14597 10.8224 2.95466 11.9913 3.00068C13.1587 2.96099 14.3222 3.15666 15.4124 3.57602C16.5026 3.99538 17.4973 4.62986 18.3371 5.44167C19.177 6.25347 19.8449 7.226 20.3011 8.30133C20.7572 9.37666 20.9923 10.5328 20.9923 11.7009C20.9923 12.869 20.7572 14.0251 20.3011 15.1004C19.8449 16.1757 19.177 17.1483 18.3371 17.9601C17.4973 18.7719 16.5026 19.4064 15.4124 19.8257C14.3222 20.2451 13.1587 20.4407 11.9913 20.4011ZM15.7257 8.58564L13.4132 11.3405L10.0665 9.28388C9.86228 9.15816 9.61959 9.1102 9.38287 9.14876C9.14616 9.18732 8.93124 9.30983 8.77745 9.49388L5.7257 13.1306C5.64084 13.231 5.57664 13.3473 5.53679 13.4726C5.49694 13.598 5.48221 13.7299 5.49346 13.861C5.5047 13.992 5.5417 14.1195 5.60233 14.2363C5.66296 14.353 5.74602 14.4566 5.84676 14.5411C5.94751 14.6257 6.06395 14.6895 6.18941 14.729C6.31487 14.7685 6.44688 14.7828 6.57789 14.7711C6.70889 14.7595 6.83631 14.7221 6.95284 14.6611C7.06937 14.6001 7.17271 14.5167 7.25695 14.4157L9.75495 11.4401L13.1016 13.4958C13.3058 13.6216 13.5484 13.6697 13.7851 13.6313C14.0218 13.593 14.2368 13.4707 14.3907 13.2868L17.2569 9.8708C17.3423 9.77038 17.4069 9.65408 17.4472 9.52858C17.4874 9.40308 17.5025 9.27086 17.4914 9.13953C17.4804 9.0082 17.4434 8.88035 17.3828 8.76334C17.3221 8.64633 17.2389 8.54247 17.138 8.45774C17.037 8.37302 16.9203 8.30909 16.7946 8.26964C16.6688 8.23019 16.5365 8.216 16.4052 8.22789C16.274 8.23978 16.1464 8.2775 16.0297 8.3389C15.9131 8.4003 15.8098 8.48415 15.7257 8.58564Z" fill="#F1BF42"/>
</svg>
