<svg width="64" height="64" viewBox="0 0 64 64" fill="none" xmlns="http://www.w3.org/2000/svg">
<rect width="64" height="64" rx="32" fill="#1D1D1F"/>
<path d="M39.63 23.6498C39.5138 23.5558 39.3781 23.4891 39.2327 23.4545C39.0873 23.4199 38.9361 23.4183 38.79 23.4498C37.7214 23.6738 36.6183 23.6766 35.5486 23.4582C34.4789 23.2398 33.4653 22.8047 32.57 22.1798C32.4026 22.0637 32.2037 22.0015 32 22.0015C31.7963 22.0015 31.5974 22.0637 31.43 22.1798C30.5348 22.8047 29.5211 23.2398 28.4514 23.4582C27.3817 23.6766 26.2786 23.6738 25.21 23.4498C25.0639 23.4183 24.9127 23.4199 24.7673 23.4545C24.6219 23.4891 24.4862 23.5558 24.37 23.6498C24.254 23.7439 24.1605 23.8629 24.0965 23.9978C24.0325 24.1328 23.9995 24.2804 24 24.4298V31.8798C23.9991 33.3136 24.3408 34.7268 24.9965 36.0018C25.6523 37.2768 26.6032 38.3767 27.77 39.2098L31.42 41.8098C31.5894 41.9304 31.7921 41.9952 32 41.9952C32.2079 41.9952 32.4106 41.9304 32.58 41.8098L36.23 39.2098C37.3968 38.3767 38.3477 37.2768 39.0035 36.0018C39.6592 34.7268 40.0009 33.3136 40 31.8798V24.4298C40.0005 24.2804 39.9675 24.1328 39.9035 23.9978C39.8395 23.8629 39.746 23.7439 39.63 23.6498ZM38 31.8798C38.0008 32.9946 37.7353 34.0934 37.2257 35.0848C36.716 36.0763 35.977 36.9317 35.07 37.5798L32 39.7698L28.93 37.5798C28.023 36.9317 27.284 36.0763 26.7744 35.0848C26.2647 34.0934 25.9992 32.9946 26 31.8798V25.5798C28.0964 25.7593 30.196 25.2728 32 24.1898C33.804 25.2728 35.9036 25.7593 38 25.5798V31.8798Z" fill="#F1BF42"/>
</svg>
