<svg width="64" height="64" viewBox="0 0 64 64" fill="none" xmlns="http://www.w3.org/2000/svg">
<rect width="64" height="64" rx="32" fill="#F1BF42"/>
<path d="M21 32.5V37.5C21 37.7652 21.1054 38.0196 21.2929 38.2071C21.4804 38.3946 21.7348 38.5 22 38.5H23C23 39.2956 23.3161 40.0587 23.8787 40.6213C24.4413 41.1839 25.2044 41.5 26 41.5C26.7956 41.5 27.5587 41.1839 28.1213 40.6213C28.6839 40.0587 29 39.2956 29 38.5H35C35 39.2956 35.3161 40.0587 35.8787 40.6213C36.4413 41.1839 37.2044 41.5 38 41.5C38.7956 41.5 39.5587 41.1839 40.1213 40.6213C40.6839 40.0587 41 39.2956 41 38.5H42C42.2652 38.5 42.5196 38.3946 42.7071 38.2071C42.8946 38.0196 43 37.7652 43 37.5V25.5C43 24.7044 42.6839 23.9413 42.1213 23.3787C41.5587 22.8161 40.7956 22.5 40 22.5H31C30.2044 22.5 29.4413 22.8161 28.8787 23.3787C28.3161 23.9413 28 24.7044 28 25.5V27.5H26C25.5343 27.5 25.0749 27.6084 24.6584 27.8167C24.2418 28.025 23.8794 28.3274 23.6 28.7L21.2 31.9C21.1708 31.9435 21.1472 31.9905 21.13 32.04L21.07 32.15C21.0259 32.2615 21.0022 32.3801 21 32.5ZM37 38.5C37 38.3022 37.0586 38.1089 37.1685 37.9444C37.2784 37.78 37.4346 37.6518 37.6173 37.5761C37.8 37.5004 38.0011 37.4806 38.1951 37.5192C38.3891 37.5578 38.5673 37.653 38.7071 37.7929C38.847 37.9327 38.9422 38.1109 38.9808 38.3049C39.0194 38.4989 38.9996 38.7 38.9239 38.8827C38.8482 39.0654 38.72 39.2216 38.5556 39.3315C38.3911 39.4414 38.1978 39.5 38 39.5C37.7348 39.5 37.4804 39.3946 37.2929 39.2071C37.1054 39.0196 37 38.7652 37 38.5ZM30 25.5C30 25.2348 30.1054 24.9804 30.2929 24.7929C30.4804 24.6054 30.7348 24.5 31 24.5H40C40.2652 24.5 40.5196 24.6054 40.7071 24.7929C40.8946 24.9804 41 25.2348 41 25.5V36.5H40.22C39.9388 36.1906 39.5961 35.9435 39.2138 35.7743C38.8315 35.6052 38.418 35.5178 38 35.5178C37.582 35.5178 37.1685 35.6052 36.7862 35.7743C36.4039 35.9435 36.0612 36.1906 35.78 36.5H30V25.5ZM28 31.5H24L25.2 29.9C25.2931 29.7758 25.4139 29.675 25.5528 29.6056C25.6916 29.5361 25.8448 29.5 26 29.5H28V31.5ZM25 38.5C25 38.3022 25.0586 38.1089 25.1685 37.9444C25.2784 37.78 25.4346 37.6518 25.6173 37.5761C25.8 37.5004 26.0011 37.4806 26.1951 37.5192C26.3891 37.5578 26.5673 37.653 26.7071 37.7929C26.847 37.9327 26.9422 38.1109 26.9808 38.3049C27.0194 38.4989 26.9996 38.7 26.9239 38.8827C26.8482 39.0654 26.72 39.2216 26.5556 39.3315C26.3911 39.4414 26.1978 39.5 26 39.5C25.7348 39.5 25.4804 39.3946 25.2929 39.2071C25.1054 39.0196 25 38.7652 25 38.5ZM23 33.5H28V36.28C27.4098 35.7526 26.6351 35.4797 25.8447 35.5209C25.0543 35.5621 24.3121 35.914 23.78 36.5H23V33.5Z" fill="white"/>
</svg>
