<svg width="119" height="9" viewBox="0 0 119 9" fill="none" xmlns="http://www.w3.org/2000/svg">
<path fill-rule="evenodd" clip-rule="evenodd" d="M7.50789 0L15.0158 7.6046L13.6381 9L7.50789 2.79081L1.37766 9L0 7.6046L7.50789 0Z" fill="#F1BF42"/>
<path fill-rule="evenodd" clip-rule="evenodd" d="M19.7082 0L27.2161 7.6046L25.8384 9L19.7082 2.79081L13.578 9L12.2003 7.6046L19.7082 0Z" fill="#F1BF42"/>
<path fill-rule="evenodd" clip-rule="evenodd" d="M31.9085 0L39.4164 7.6046L38.0388 9L31.9085 2.79081L25.7783 9L24.4006 7.6046L31.9085 0Z" fill="#F1BF42"/>
<path fill-rule="evenodd" clip-rule="evenodd" d="M44.1088 0L51.6167 7.6046L50.2391 9L44.1088 2.79081L37.9786 9L36.601 7.6046L44.1088 0Z" fill="#F1BF42"/>
<path fill-rule="evenodd" clip-rule="evenodd" d="M56.3092 0L63.8171 7.6046L62.4394 9L56.3092 2.79081L50.179 9L48.8013 7.6046L56.3092 0Z" fill="#F1BF42"/>
<path fill-rule="evenodd" clip-rule="evenodd" d="M68.5095 0L76.0174 7.6046L74.6397 9L68.5095 2.79081L62.3793 9L61.0016 7.6046L68.5095 0Z" fill="#F1BF42"/>
<path fill-rule="evenodd" clip-rule="evenodd" d="M80.7098 0L88.2177 7.6046L86.84 9L80.7098 2.79081L74.5796 9L73.2019 7.6046L80.7098 0Z" fill="#F1BF42"/>
<path fill-rule="evenodd" clip-rule="evenodd" d="M93.0157 0L100.524 7.6046L99.1459 9L93.0157 2.79081L86.8855 9L85.5078 7.6046L93.0157 0Z" fill="#F1BF42"/>
<path fill-rule="evenodd" clip-rule="evenodd" d="M105.242 0L112.75 7.6046L111.372 9L105.242 2.79081L99.1119 9L97.7343 7.6046L105.242 0Z" fill="#F1BF42"/>
<path d="M117.61 2.79081L111.48 9L110.102 7.6046L117.61 0L119 1.40816L117.61 2.79081Z" fill="#F1BF42"/>
</svg>
