<svg width="134" height="48" viewBox="0 0 134 48" fill="none" xmlns="http://www.w3.org/2000/svg">
<g filter="url(#filter0_d_148_3018)">
<path d="M10.3855 17.7778C9.14389 17.7778 8.04739 17.565 7.09601 17.1394C6.14463 16.6974 5.39482 16.0753 4.84657 15.2732C4.29831 14.4547 4.01613 13.4643 4 12.302H7.26532C7.29757 13.1042 7.57976 13.7835 8.11189 14.3401C8.66014 14.8803 9.40996 15.1504 10.3613 15.1504C11.1837 15.1504 11.8368 14.954 12.3205 14.5611C12.8043 14.1518 13.0462 13.6116 13.0462 12.9405C13.0462 12.2365 12.8285 11.6882 12.3931 11.2953C11.9738 10.9024 11.4095 10.5832 10.7 10.3376C9.99046 10.0921 9.23258 9.83016 8.42633 9.55187C7.1202 9.09351 6.12044 8.50419 5.42707 7.78392C4.74981 7.06364 4.41119 6.106 4.41119 4.91099C4.39506 3.89605 4.62888 3.02844 5.11263 2.30816C5.61251 1.57152 6.28976 1.00675 7.14439 0.613873C7.99901 0.204624 8.98264 0 10.0953 0C11.224 0 12.2157 0.204624 13.0703 0.613873C13.9411 1.02312 14.6183 1.59607 15.1021 2.33272C15.602 3.06937 15.868 3.94516 15.9003 4.9601H12.5866C12.5705 4.35441 12.3367 3.82238 11.8851 3.36403C11.4498 2.8893 10.837 2.65193 10.0469 2.65193C9.36964 2.63556 8.7972 2.80745 8.32958 3.16759C7.87808 3.51136 7.65232 4.01883 7.65232 4.68999C7.65232 5.26294 7.8297 5.7213 8.18445 6.06507C8.5392 6.39247 9.02295 6.67076 9.63571 6.89994C10.2485 7.12912 10.9499 7.37467 11.74 7.63659C12.5785 7.93125 13.3445 8.27501 14.0378 8.66789C14.7312 9.06077 15.2875 9.58461 15.7068 10.2394C16.126 10.8778 16.3357 11.7045 16.3357 12.7195C16.3357 13.6198 16.1099 14.4547 15.6584 15.2241C15.2069 15.9935 14.5377 16.6155 13.6508 17.0902C12.764 17.5486 11.6755 17.7778 10.3855 17.7778Z" fill="#1D1D1F"/>
<path d="M116.783 40V22.2222H119.848V29.4095L126.049 22.2222H129.832L123.655 29.2825L130 40H126.241L121.452 31.7714L119.848 33.6254V40H116.783Z" fill="#1D1D1F"/>
<path d="M107.309 40C106.067 40 104.97 39.7872 104.019 39.3616C103.068 38.9196 102.318 38.2975 101.77 37.4954C101.221 36.6769 100.939 35.6865 100.923 34.5243H104.188C104.221 35.3264 104.503 36.0057 105.035 36.5623C105.583 37.1025 106.333 37.3726 107.284 37.3726C108.107 37.3726 108.76 37.1762 109.244 36.7833C109.727 36.3741 109.969 35.8338 109.969 35.1627C109.969 34.4588 109.752 33.9104 109.316 33.5175C108.897 33.1246 108.333 32.8054 107.623 32.5599C106.914 32.3143 106.156 32.0524 105.349 31.7741C104.043 31.3157 103.044 30.7264 102.35 30.0061C101.673 29.2859 101.334 28.3282 101.334 27.1332C101.318 26.1183 101.552 25.2507 102.036 24.5304C102.536 23.7937 103.213 23.229 104.067 22.8361C104.922 22.4268 105.906 22.2222 107.018 22.2222C108.147 22.2222 109.139 22.4268 109.993 22.8361C110.864 23.2453 111.541 23.8183 112.025 24.5549C112.525 25.2916 112.791 26.1674 112.823 27.1823H109.51C109.494 26.5766 109.26 26.0446 108.808 25.5862C108.373 25.1115 107.76 24.8742 106.97 24.8742C106.293 24.8578 105.72 25.0297 105.253 25.3898C104.801 25.7336 104.575 26.241 104.575 26.9122C104.575 27.4852 104.753 27.9435 105.108 28.2873C105.462 28.6147 105.946 28.893 106.559 29.1222C107.172 29.3513 107.873 29.5969 108.663 29.8588C109.502 30.1535 110.268 30.4972 110.961 30.8901C111.654 31.283 112.211 31.8068 112.63 32.4616C113.049 33.1001 113.259 33.9267 113.259 34.9417C113.259 35.842 113.033 36.6769 112.581 37.4463C112.13 38.2157 111.461 38.8377 110.574 39.3125C109.687 39.7708 108.599 40 107.309 40Z" fill="#1D1D1F"/>
<path d="M86.8252 40V22.2222H97.3986V24.8381H89.7867V29.7143H96.7045V32.254H89.7867V37.3841H97.3986V40H86.8252Z" fill="#1D1D1F"/>
<path d="M50.6993 17.7778V0H53.784L61.7125 12.5206V0H64.7972V17.7778H61.7125L53.784 5.28254V17.7778H50.6993Z" fill="#1D1D1F"/>
<path d="M32.1958 17.7778L38.3851 0H41.8666L48.0559 17.7778H44.7679L43.414 13.6635H36.8136L35.4355 17.7778H32.1958ZM37.6598 11.1238H42.5678L40.1017 3.73333L37.6598 11.1238Z" fill="#1D1D1F"/>
<path fill-rule="evenodd" clip-rule="evenodd" d="M75.3706 3.02222H72.1986V36.9778H75.3706C78.0957 36.9778 80.3049 34.7492 80.3049 32V8C80.3049 5.25085 78.0957 3.02222 75.3706 3.02222ZM69.2028 0V40H75.3706C79.7503 40 83.3007 36.4183 83.3007 32V8C83.3007 3.58172 79.7503 0 75.3706 0H69.2028Z" fill="#1D1D1F"/>
<path d="M18.979 0H31.3147V2.66667H18.979V0Z" fill="#1D1D1F"/>
<path d="M23.8252 2.66667H26.4685V40H23.8252V2.66667Z" fill="#1D1D1F"/>
</g>
<defs>
<filter id="filter0_d_148_3018" x="0" y="0" width="134" height="48" filterUnits="userSpaceOnUse" color-interpolation-filters="sRGB">
<feFlood flood-opacity="0" result="BackgroundImageFix"/>
<feColorMatrix in="SourceAlpha" type="matrix" values="0 0 0 0 0 0 0 0 0 0 0 0 0 0 0 0 0 0 127 0" result="hardAlpha"/>
<feOffset dy="4"/>
<feGaussianBlur stdDeviation="2"/>
<feComposite in2="hardAlpha" operator="out"/>
<feColorMatrix type="matrix" values="0 0 0 0 0 0 0 0 0 0 0 0 0 0 0 0 0 0 0.25 0"/>
<feBlend mode="normal" in2="BackgroundImageFix" result="effect1_dropShadow_148_3018"/>
<feBlend mode="normal" in="SourceGraphic" in2="effect1_dropShadow_148_3018" result="shape"/>
</filter>
</defs>
</svg>
