<svg width="101" height="32" viewBox="0 0 101 32" fill="none" xmlns="http://www.w3.org/2000/svg">
<g id="logo">
<path d="M5.11855 14.2222C4.12328 14.2222 3.24433 14.052 2.48172 13.7115C1.71911 13.3579 1.11807 12.8602 0.678596 12.2185C0.239124 11.5637 0.0129257 10.7714 0 9.84162H2.61744C2.64329 10.4833 2.86949 11.0268 3.29604 11.4721C3.73551 11.9042 4.33655 12.1203 5.09916 12.1203C5.75837 12.1203 6.28186 11.9632 6.66963 11.6489C7.0574 11.3215 7.25128 10.8893 7.25128 10.3524C7.25128 9.78924 7.07679 9.35052 6.72779 9.03622C6.39173 8.72192 5.93933 8.46654 5.3706 8.2701C4.80187 8.07366 4.19437 7.86413 3.54809 7.6415C2.50111 7.27481 1.69972 6.80336 1.14392 6.22713C0.601042 5.65091 0.329604 4.8848 0.329604 3.92879C0.316678 3.11684 0.5041 2.42275 0.891869 1.84653C1.29256 1.25721 1.83544 0.805402 2.5205 0.491098C3.20556 0.163699 3.99402 0 4.88589 0C5.79069 0 6.58561 0.163699 7.27067 0.491098C7.96866 0.818497 8.51153 1.27686 8.8993 1.86617C9.3 2.45549 9.51327 3.15613 9.53912 3.96808H6.8829C6.86998 3.48353 6.68255 3.05791 6.32064 2.69122C5.97164 2.31144 5.48047 2.12155 4.84711 2.12155C4.30424 2.10845 3.84538 2.24596 3.47053 2.53407C3.10862 2.80909 2.92766 3.21506 2.92766 3.75199C2.92766 4.21035 3.06984 4.57704 3.3542 4.85206C3.63857 5.11398 4.02634 5.33661 4.51751 5.51995C5.00868 5.70329 5.57095 5.89973 6.20431 6.10927C6.87644 6.345 7.49041 6.62001 8.04621 6.93431C8.60201 7.24862 9.04795 7.66769 9.38401 8.19153C9.72008 8.70227 9.88811 9.36362 9.88811 10.1756C9.88811 10.8958 9.70715 11.5637 9.34524 12.1793C8.98332 12.7948 8.4469 13.2924 7.73599 13.6722C7.02508 14.0389 6.1526 14.2222 5.11855 14.2222Z" fill="#F1BF42"/>
<path d="M90.4056 32V17.7778H92.8623V23.5276L97.8332 17.7778H100.866L95.9139 23.426L101 32H97.9867L94.1482 25.4171L92.8623 26.9003V32H90.4056Z" fill="#F1BF42"/>
<path d="M82.8109 32C81.8156 32 80.9366 31.8298 80.174 31.4893C79.4114 31.1357 78.8104 30.638 78.3709 29.9963C77.9314 29.3415 77.7052 28.5492 77.6923 27.6194H80.3097C80.3356 28.2611 80.5618 28.8046 80.9883 29.2498C81.4278 29.682 82.0289 29.8981 82.7915 29.8981C83.4507 29.8981 83.9742 29.7409 84.3619 29.4266C84.7497 29.0992 84.9436 28.6671 84.9436 28.1301C84.9436 27.567 84.7691 27.1283 84.4201 26.814C84.084 26.4997 83.6316 26.2443 83.0629 26.0479C82.4942 25.8514 81.8867 25.6419 81.2404 25.4193C80.1934 25.0526 79.392 24.5811 78.8362 24.0049C78.2934 23.4287 78.0219 22.6626 78.0219 21.7066C78.009 20.8946 78.1964 20.2005 78.5842 19.6243C78.9849 19.035 79.5277 18.5832 80.2128 18.2689C80.8979 17.9415 81.6863 17.7778 82.5782 17.7778C83.483 17.7778 84.2779 17.9415 84.963 18.2689C85.661 18.5963 86.2038 19.0546 86.5916 19.644C86.9923 20.2333 87.2056 20.9339 87.2314 21.7459H84.5752C84.5623 21.2613 84.3749 20.8357 84.0129 20.469C83.6639 20.0892 83.1728 19.8993 82.5394 19.8993C81.9965 19.8862 81.5377 20.0237 81.1628 20.3118C80.8009 20.5869 80.62 20.9928 80.62 21.5298C80.62 21.9881 80.7621 22.3548 81.0465 22.6298C81.3309 22.8918 81.7186 23.1144 82.2098 23.2977C82.701 23.4811 83.2633 23.6775 83.8966 23.887C84.5687 24.1228 85.1827 24.3978 85.7385 24.7121C86.2943 25.0264 86.7403 25.4455 87.0763 25.9693C87.4124 26.48 87.5804 27.1414 87.5804 27.9533C87.5804 28.6736 87.3995 29.3415 87.0375 29.957C86.6756 30.5725 86.1392 31.0702 85.4283 31.45C84.7174 31.8167 83.8449 32 82.8109 32Z" fill="#F1BF42"/>
<path d="M66.3916 32V17.7778H74.8671V19.8705H68.7655V23.7714H74.3108V25.8032H68.7655V29.9073H74.8671V32H66.3916Z" fill="#F1BF42"/>
<path d="M37.4336 14.2222V0H39.9062L46.2616 10.0165V0H48.7343V14.2222H46.2616L39.9062 4.22603V14.2222H37.4336Z" fill="#F1BF42"/>
<path d="M22.6014 14.2222L27.5627 0H30.3534L35.3147 14.2222H32.679L31.5937 10.9308H26.303L25.1983 14.2222H22.6014ZM26.9813 8.89905H30.9154L28.9387 2.98667L26.9813 8.89905Z" fill="#F1BF42"/>
<path fill-rule="evenodd" clip-rule="evenodd" d="M57.2098 2.41778H54.6671V29.5822H57.2098C59.3942 29.5822 61.165 27.7993 61.165 25.6V6.4C61.165 4.20068 59.3942 2.41778 57.2098 2.41778ZM52.2657 0V32H57.2098C60.7205 32 63.5664 29.1346 63.5664 25.6V6.4C63.5664 2.86538 60.7205 0 57.2098 0H52.2657Z" fill="#F1BF42"/>
<path d="M12.007 0H21.8951V2.13333H12.007V0Z" fill="#F1BF42"/>
<path d="M15.8916 2.13333H18.0105V32H15.8916V2.13333Z" fill="#F1BF42"/>
</g>
</svg>
