<svg width="210" height="660" viewBox="0 0 210 660" fill="none" xmlns="http://www.w3.org/2000/svg">
<path d="M93.3333 626.552C93.3333 633.056 92.2161 638.799 89.9816 643.783C87.6611 648.766 84.3953 652.694 80.1842 655.566C75.887 658.437 70.6875 659.916 64.5856 660V642.896C68.7968 642.727 72.3634 641.249 75.2854 638.462C78.1215 635.59 79.5396 631.662 79.5396 626.679C79.5396 622.371 78.5083 618.95 76.4457 616.416C74.2971 613.882 71.461 612.615 67.9374 612.615C64.2419 612.615 61.3628 613.756 59.3002 616.036C57.2376 618.232 55.5617 621.189 54.2726 624.905C52.9834 628.621 51.6083 632.591 50.1473 636.814C47.7409 643.656 44.647 648.893 40.8656 652.525C37.0841 656.072 32.0565 657.846 25.7827 657.846C20.4543 657.931 15.8993 656.706 12.1179 654.172C8.25046 651.554 5.28545 648.006 3.22283 643.529C1.07428 639.053 0 633.9 0 628.072C0 622.16 1.07428 616.965 3.22283 612.489C5.37139 607.928 8.37937 604.38 12.2468 601.846C16.1142 599.228 20.7121 597.834 26.0405 597.665V615.023C22.8606 615.107 20.0675 616.332 17.6611 618.697C15.1688 620.977 13.9226 624.187 13.9226 628.326C13.8367 631.873 14.7391 634.872 16.6298 637.321C18.4346 639.686 21.0988 640.869 24.6225 640.869C27.6304 640.869 30.0368 639.94 31.8416 638.081C33.5605 636.223 35.0215 633.689 36.2247 630.48C37.4279 627.27 38.717 623.596 40.0921 619.457C41.639 615.065 43.4438 611.053 45.5064 607.421C47.5691 603.789 50.3192 600.875 53.7569 598.679C57.1087 596.483 61.4487 595.385 66.7772 595.385C71.504 595.385 75.887 596.567 79.9263 598.932C83.9656 601.297 87.2314 604.802 89.7237 609.448C92.1301 614.094 93.3333 619.795 93.3333 626.552Z" fill="#F2F2F2"/>
<path d="M210 69.2308H116.667V53.1773H154.4L116.667 20.694V0.87793L153.733 33.2358L210 0V19.6906L166.8 44.7742L176.533 53.1773H210V69.2308Z" fill="#F2F2F2"/>
<path d="M210 118.86C210 125.363 208.883 131.107 206.648 136.091C204.328 141.074 201.062 145.002 196.851 147.873C192.554 150.745 187.354 152.223 181.252 152.308V135.204C185.463 135.035 189.03 133.557 191.952 130.769C194.788 127.897 196.206 123.97 196.206 118.986C196.206 114.679 195.175 111.258 193.112 108.724C190.964 106.19 188.128 104.923 184.604 104.923C180.909 104.923 178.029 106.063 175.967 108.344C173.904 110.54 172.228 113.496 170.939 117.213C169.65 120.929 168.275 124.899 166.814 129.122C164.408 135.964 161.314 141.201 157.532 144.833C153.751 148.38 148.723 150.154 142.449 150.154C137.121 150.238 132.566 149.014 128.785 146.48C124.917 143.861 121.952 140.314 119.889 135.837C117.741 131.36 116.667 126.208 116.667 120.38C116.667 114.468 117.741 109.273 119.889 104.796C122.038 100.235 125.046 96.6878 128.913 94.1539C132.781 91.5355 137.379 90.1418 142.707 89.9728V107.33C139.527 107.415 136.734 108.64 134.328 111.005C131.835 113.285 130.589 116.495 130.589 120.633C130.503 124.181 131.406 127.18 133.296 129.629C135.101 131.994 137.766 133.177 141.289 133.177C144.297 133.177 146.703 132.247 148.508 130.389C150.227 128.531 151.688 125.997 152.891 122.787C154.095 119.578 155.384 115.903 156.759 111.765C158.306 107.373 160.11 103.36 162.173 99.7285C164.236 96.0965 166.986 93.1825 170.424 90.9864C173.775 88.7903 178.115 87.6923 183.444 87.6923C188.171 87.6923 192.554 88.8748 196.593 91.2398C200.632 93.6048 203.898 97.1101 206.39 101.756C208.797 106.401 210 112.103 210 118.86Z" fill="#F2F2F2"/>
<path d="M210 226.154H116.667V170.769H130.4V210.641H156V174.405H169.333V210.641H196.267V170.769H210V226.154Z" fill="#F2F2F2"/>
<path d="M93.3333 415.385H0L0 399.227L65.7333 357.696H0L0 341.538H93.3333V357.696L27.7333 399.227H93.3333V415.385Z" fill="#F2F2F2"/>
<path d="M93.3333 512.308L0 479.887L0 461.651L93.3333 429.231V446.454L71.7333 453.546V488.119L93.3333 495.338V512.308ZM58.4 483.687V457.978L19.6 470.896L58.4 483.687Z" fill="#F2F2F2"/>
<path fill-rule="evenodd" clip-rule="evenodd" d="M15.8667 286.154L15.8667 302.769H194.133V286.154C194.133 271.879 182.433 260.308 168 260.308H42C27.567 260.308 15.8667 271.879 15.8667 286.154ZM0 318.462H210V286.154C210 263.213 191.196 244.615 168 244.615H42C18.804 244.615 0 263.213 0 286.154L0 318.462Z" fill="#F2F2F2"/>
<path d="M0 581.538L0 516.923H14L14 581.538H0Z" fill="#F2F2F2"/>
<path d="M14 556.154V542.308H210V556.154H14Z" fill="#F2F2F2"/>
</svg>
