<svg width="126" height="40" viewBox="0 0 126 40" fill="none" xmlns="http://www.w3.org/2000/svg">
<path d="M6.38552 17.7778C5.14389 17.7778 4.04739 17.565 3.09601 17.1394C2.14463 16.6974 1.39482 16.0753 0.846565 15.2732C0.298313 14.4547 0.0161251 13.4643 0 12.302H3.26532C3.29757 13.1042 3.57976 13.7835 4.11189 14.3401C4.66014 14.8803 5.40996 15.1504 6.36133 15.1504C7.18371 15.1504 7.83678 14.954 8.32053 14.5611C8.80428 14.1518 9.04615 13.6116 9.04615 12.9405C9.04615 12.2365 8.82847 11.6882 8.39309 11.2953C7.97384 10.9024 7.40946 10.5832 6.69996 10.3376C5.99046 10.0921 5.23258 9.83016 4.42633 9.55187C3.1202 9.09351 2.12044 8.50419 1.42707 7.78392C0.749815 7.06364 0.411189 6.106 0.411189 4.91099C0.395064 3.89605 0.628877 3.02844 1.11263 2.30816C1.61251 1.57152 2.28976 1.00675 3.14439 0.613873C3.99901 0.204624 4.98264 0 6.09527 0C7.22402 0 8.21571 0.204624 9.07034 0.613873C9.9411 1.02312 10.6183 1.59607 11.1021 2.33272C11.602 3.06937 11.868 3.94516 11.9003 4.9601H8.58659C8.57047 4.35441 8.33665 3.82238 7.88515 3.36403C7.44977 2.8893 6.83702 2.65193 6.0469 2.65193C5.36964 2.63556 4.7972 2.80745 4.32958 3.16759C3.87808 3.51136 3.65232 4.01883 3.65232 4.68999C3.65232 5.26294 3.8297 5.7213 4.18445 6.06507C4.5392 6.39247 5.02295 6.67076 5.63571 6.89994C6.24846 7.12912 6.9499 7.37467 7.74003 7.63659C8.57853 7.93125 9.34447 8.27501 10.0378 8.66789C10.7312 9.06077 11.2875 9.58461 11.7068 10.2394C12.126 10.8778 12.3357 11.7045 12.3357 12.7195C12.3357 13.6198 12.1099 14.4547 11.6584 15.2241C11.2069 15.9935 10.5377 16.6155 9.65084 17.0902C8.76397 17.5486 7.67553 17.7778 6.38552 17.7778Z" fill="#F1BF42"/>
<path d="M112.783 40V22.2222H115.848V29.4095L122.049 22.2222H125.832L119.655 29.2825L126 40H122.241L117.452 31.7714L115.848 33.6254V40H112.783Z" fill="#F1BF42"/>
<path d="M103.309 40C102.067 40 100.97 39.7872 100.019 39.3616C99.0677 38.9196 98.3179 38.2975 97.7696 37.4954C97.2214 36.6769 96.9392 35.6865 96.9231 34.5243H100.188C100.221 35.3264 100.503 36.0057 101.035 36.5623C101.583 37.1025 102.333 37.3726 103.284 37.3726C104.107 37.3726 104.76 37.1762 105.244 36.7833C105.727 36.3741 105.969 35.8338 105.969 35.1627C105.969 34.4588 105.752 33.9104 105.316 33.5175C104.897 33.1246 104.333 32.8054 103.623 32.5599C102.914 32.3143 102.156 32.0524 101.349 31.7741C100.043 31.3157 99.0435 30.7264 98.3501 30.0061C97.6729 29.2859 97.3343 28.3282 97.3343 27.1332C97.3181 26.1183 97.552 25.2507 98.0357 24.5304C98.5356 23.7937 99.2128 23.229 100.067 22.8361C100.922 22.4268 101.906 22.2222 103.018 22.2222C104.147 22.2222 105.139 22.4268 105.993 22.8361C106.864 23.2453 107.541 23.8183 108.025 24.5549C108.525 25.2916 108.791 26.1674 108.823 27.1823H105.51C105.494 26.5766 105.26 26.0446 104.808 25.5862C104.373 25.1115 103.76 24.8742 102.97 24.8742C102.293 24.8578 101.72 25.0297 101.253 25.3898C100.801 25.7336 100.575 26.241 100.575 26.9122C100.575 27.4852 100.753 27.9435 101.108 28.2873C101.462 28.6147 101.946 28.893 102.559 29.1222C103.172 29.3513 103.873 29.5969 104.663 29.8588C105.502 30.1535 106.268 30.4972 106.961 30.8901C107.654 31.283 108.211 31.8068 108.63 32.4616C109.049 33.1001 109.259 33.9267 109.259 34.9417C109.259 35.842 109.033 36.6769 108.581 37.4463C108.13 38.2157 107.461 38.8377 106.574 39.3125C105.687 39.7708 104.599 40 103.309 40Z" fill="#F1BF42"/>
<path d="M82.8252 40V22.2222H93.3986V24.8381H85.7867V29.7143H92.7045V32.254H85.7867V37.3841H93.3986V40H82.8252Z" fill="#F1BF42"/>
<path d="M46.6993 17.7778V0H49.784L57.7125 12.5206V0H60.7972V17.7778H57.7125L49.784 5.28254V17.7778H46.6993Z" fill="#F1BF42"/>
<path d="M28.1958 17.7778L34.3851 0H37.8666L44.0559 17.7778H40.7679L39.414 13.6635H32.8136L31.4355 17.7778H28.1958ZM33.6598 11.1238H38.5678L36.1017 3.73333L33.6598 11.1238Z" fill="#F1BF42"/>
<path fill-rule="evenodd" clip-rule="evenodd" d="M71.3706 3.02222H68.1986V36.9778H71.3706C74.0957 36.9778 76.3049 34.7492 76.3049 32V8C76.3049 5.25085 74.0957 3.02222 71.3706 3.02222ZM65.2028 0V40H71.3706C75.7503 40 79.3007 36.4183 79.3007 32V8C79.3007 3.58172 75.7503 0 71.3706 0H65.2028Z" fill="#F1BF42"/>
<path d="M14.979 0H27.3147V2.66667H14.979V0Z" fill="#F1BF42"/>
<path d="M19.8252 2.66667H22.4685V40H19.8252V2.66667Z" fill="#F1BF42"/>
</svg>
